<svg width="48" height="48" viewBox="0 0 48 48" fill="none" xmlns="http://www.w3.org/2000/svg">
<rect width="48" height="48" rx="12" fill="#EBEBEB"/>
<g clip-path="url(#clip0_522_4210)">
<path d="M23.9999 13.2292C29.9485 13.2292 34.7708 18.0515 34.7708 24.0001C34.7708 29.9487 29.9485 34.771 23.9999 34.771C18.0513 34.771 13.2291 29.9487 13.2291 24.0001C13.2291 18.0515 18.0513 13.2292 23.9999 13.2292ZM23.9999 14.6042C18.8107 14.6042 14.6041 18.8109 14.6041 24.0001C14.6041 29.1893 18.8107 33.396 23.9999 33.396C29.1891 33.396 33.3958 29.1893 33.3958 24.0001C33.3958 18.8109 29.1891 14.6042 23.9999 14.6042ZM24.6875 16.6667V23.6033L30.6946 27.0714L30.0071 28.2621L23.3125 24.397V16.6667H24.6875Z" fill="black"/>
</g>
<defs>
<clipPath id="clip0_522_4210">
<rect width="22" height="22" fill="white" transform="translate(13 13)"/>
</clipPath>
</defs>
</svg>
