<svg width="105" height="41" viewBox="0 0 105 41" fill="none" xmlns="http://www.w3.org/2000/svg">
<rect y="0.5" width="105" height="40" rx="20" fill="#00CA8A"/>
<path d="M22.2716 25.6684L19.3313 22.7281C20.0391 21.7857 20.4213 20.6387 20.42 19.46C20.42 16.4494 17.9706 14 14.96 14C11.9494 14 9.5 16.4494 9.5 19.46C9.5 22.4706 11.9494 24.92 14.96 24.92C16.1387 24.9213 17.2857 24.5391 18.2281 23.8313L21.1684 26.7716C21.3173 26.9046 21.5114 26.9756 21.711 26.97C21.9105 26.9645 22.1004 26.8827 22.2415 26.7415C22.3827 26.6004 22.4645 26.4105 22.47 26.211C22.4756 26.0114 22.4046 25.8173 22.2716 25.6684ZM11.06 19.46C11.06 18.6887 11.2887 17.9346 11.7173 17.2933C12.1458 16.6519 12.7549 16.1521 13.4675 15.8569C14.1802 15.5617 14.9643 15.4845 15.7209 15.6349C16.4774 15.7854 17.1723 16.1569 17.7177 16.7023C18.2631 17.2477 18.6346 17.9426 18.7851 18.6991C18.9355 19.4557 18.8583 20.2398 18.5631 20.9525C18.268 21.6651 17.7681 22.2742 17.1267 22.7027C16.4854 23.1313 15.7313 23.36 14.96 23.36C13.926 23.3588 12.9348 22.9475 12.2037 22.2163C11.4725 21.4852 11.0612 20.494 11.06 19.46Z" fill="white"/>
<path d="M36.768 26.612C36.032 26.612 35.3707 26.484 34.784 26.228C34.208 25.9613 33.7547 25.5987 33.424 25.14C33.0933 24.6707 32.9227 24.132 32.912 23.524H34.464C34.5173 24.0467 34.7307 24.4893 35.104 24.852C35.488 25.204 36.0427 25.38 36.768 25.38C37.4613 25.38 38.0053 25.2093 38.4 24.868C38.8053 24.516 39.008 24.068 39.008 23.524C39.008 23.0973 38.8907 22.7507 38.656 22.484C38.4213 22.2173 38.128 22.0147 37.776 21.876C37.424 21.7373 36.9493 21.588 36.352 21.428C35.616 21.236 35.024 21.044 34.576 20.852C34.1387 20.66 33.76 20.3613 33.44 19.956C33.1307 19.54 32.976 18.9853 32.976 18.292C32.976 17.684 33.1307 17.1453 33.44 16.676C33.7493 16.2067 34.1813 15.844 34.736 15.588C35.3013 15.332 35.9467 15.204 36.672 15.204C37.7173 15.204 38.5707 15.4653 39.232 15.988C39.904 16.5107 40.2827 17.204 40.368 18.068H38.768C38.7147 17.6413 38.4907 17.268 38.096 16.948C37.7013 16.6173 37.1787 16.452 36.528 16.452C35.92 16.452 35.424 16.612 35.04 16.932C34.656 17.2413 34.464 17.6787 34.464 18.244C34.464 18.6493 34.576 18.98 34.8 19.236C35.0347 19.492 35.3173 19.6893 35.648 19.828C35.9893 19.956 36.464 20.1053 37.072 20.276C37.808 20.4787 38.4 20.6813 38.848 20.884C39.296 21.076 39.68 21.38 40 21.796C40.32 22.2013 40.48 22.756 40.48 23.46C40.48 24.004 40.336 24.516 40.048 24.996C39.76 25.476 39.3333 25.8653 38.768 26.164C38.2027 26.4627 37.536 26.612 36.768 26.612ZM50.6226 21.78C50.6226 22.0573 50.6066 22.3507 50.5746 22.66H43.5666C43.62 23.524 43.9133 24.2013 44.4466 24.692C44.9906 25.172 45.6466 25.412 46.4146 25.412C47.044 25.412 47.5666 25.268 47.9826 24.98C48.4093 24.6813 48.708 24.2867 48.8786 23.796H50.4466C50.212 24.6387 49.7426 25.3267 49.0386 25.86C48.3346 26.3827 47.46 26.644 46.4146 26.644C45.5826 26.644 44.836 26.4573 44.1746 26.084C43.524 25.7107 43.012 25.1827 42.6386 24.5C42.2653 23.8067 42.0786 23.0067 42.0786 22.1C42.0786 21.1933 42.26 20.3987 42.6226 19.716C42.9853 19.0333 43.492 18.5107 44.1426 18.148C44.804 17.7747 45.5613 17.588 46.4146 17.588C47.2466 17.588 47.9826 17.7693 48.6226 18.132C49.2626 18.4947 49.7533 18.996 50.0946 19.636C50.4466 20.2653 50.6226 20.98 50.6226 21.78ZM49.1186 21.476C49.1186 20.9213 48.996 20.4467 48.7506 20.052C48.5053 19.6467 48.1693 19.3427 47.7426 19.14C47.3266 18.9267 46.8626 18.82 46.3506 18.82C45.6146 18.82 44.9853 19.0547 44.4626 19.524C43.9506 19.9933 43.6573 20.644 43.5826 21.476H49.1186ZM52.0005 22.084C52.0005 21.188 52.1818 20.404 52.5445 19.732C52.9072 19.0493 53.4032 18.5213 54.0325 18.148C54.6725 17.7747 55.3818 17.588 56.1605 17.588C56.9285 17.588 57.5952 17.7533 58.1605 18.084C58.7258 18.4147 59.1472 18.8307 59.4245 19.332V17.732H60.8965V26.5H59.4245V24.868C59.1365 25.38 58.7045 25.8067 58.1285 26.148C57.5632 26.4787 56.9018 26.644 56.1445 26.644C55.3658 26.644 54.6618 26.452 54.0325 26.068C53.4032 25.684 52.9072 25.1453 52.5445 24.452C52.1818 23.7587 52.0005 22.9693 52.0005 22.084ZM59.4245 22.1C59.4245 21.4387 59.2912 20.8627 59.0245 20.372C58.7578 19.8813 58.3952 19.508 57.9365 19.252C57.4885 18.9853 56.9925 18.852 56.4485 18.852C55.9045 18.852 55.4085 18.98 54.9605 19.236C54.5125 19.492 54.1552 19.8653 53.8885 20.356C53.6218 20.8467 53.4885 21.4227 53.4885 22.084C53.4885 22.756 53.6218 23.3427 53.8885 23.844C54.1552 24.3347 54.5125 24.7133 54.9605 24.98C55.4085 25.236 55.9045 25.364 56.4485 25.364C56.9925 25.364 57.4885 25.236 57.9365 24.98C58.3952 24.7133 58.7578 24.3347 59.0245 23.844C59.2912 23.3427 59.4245 22.7613 59.4245 22.1ZM64.813 19.156C65.069 18.6547 65.4317 18.2653 65.901 17.988C66.381 17.7107 66.9623 17.572 67.645 17.572V19.076H67.261C65.629 19.076 64.813 19.9613 64.813 21.732V26.5H63.357V17.732H64.813V19.156ZM68.7818 22.1C68.7818 21.1933 68.9631 20.404 69.3258 19.732C69.6884 19.0493 70.1898 18.5213 70.8298 18.148C71.4804 17.7747 72.2218 17.588 73.0538 17.588C74.1311 17.588 75.0164 17.8493 75.7098 18.372C76.4138 18.8947 76.8778 19.62 77.1018 20.548H75.5338C75.3844 20.0147 75.0911 19.5933 74.6538 19.284C74.2271 18.9747 73.6938 18.82 73.0538 18.82C72.2218 18.82 71.5498 19.108 71.0378 19.684C70.5258 20.2493 70.2698 21.0547 70.2698 22.1C70.2698 23.156 70.5258 23.972 71.0378 24.548C71.5498 25.124 72.2218 25.412 73.0538 25.412C73.6938 25.412 74.2271 25.2627 74.6538 24.964C75.0804 24.6653 75.3738 24.2387 75.5338 23.684H77.1018C76.8671 24.58 76.3978 25.3 75.6938 25.844C74.9898 26.3773 74.1098 26.644 73.0538 26.644C72.2218 26.644 71.4804 26.4573 70.8298 26.084C70.1898 25.7107 69.6884 25.1827 69.3258 24.5C68.9631 23.8173 68.7818 23.0173 68.7818 22.1ZM83.3965 17.572C84.0578 17.572 84.6552 17.716 85.1885 18.004C85.7218 18.2813 86.1378 18.7027 86.4365 19.268C86.7458 19.8333 86.9005 20.5213 86.9005 21.332V26.5H85.4605V21.54C85.4605 20.6653 85.2418 19.9987 84.8045 19.54C84.3672 19.0707 83.7698 18.836 83.0125 18.836C82.2445 18.836 81.6312 19.076 81.1725 19.556C80.7245 20.036 80.5005 20.7347 80.5005 21.652V26.5H79.0445V14.66H80.5005V18.98C80.7885 18.532 81.1832 18.1853 81.6845 17.94C82.1965 17.6947 82.7672 17.572 83.3965 17.572Z" fill="white"/>
</svg>
